<?xml version="1.0" encoding="utf-8"?>
<!-- Generator: Adobe Illustrator 25.2.3, SVG Export Plug-In . SVG Version: 6.00 Build 0)  -->
<svg version="1.1" id="Layer_1" xmlns="http://www.w3.org/2000/svg" xmlns:xlink="http://www.w3.org/1999/xlink" x="0px" y="0px"
	 viewBox="0 0 350 350" style="enable-background:new 0 0 350 350;" xml:space="preserve">
<style type="text/css">
	.st0{fill:#FFFFFF;}
</style>
<g>
	<path class="st0" d="M170.1,335.3c-4.5-0.6-9-1.3-13.6-1.8c-1.9-0.2-2.5-0.9-2.4-2.8c0.1-4.5-0.2-9,0.1-13.5
		c0.2-2.7-0.9-3.5-3.4-4.1c-12.9-2.9-25.8-5.9-39-8.9c0.2-1.1,0.4-2.1,0.7-3c6.7-24,13.9-48,20-72.2c1.8-6.9,0.9-14.5,1.1-21.8
		c0-0.6-1-1.5-1.7-1.9c-14.8-7.5-27.2-17.8-37.1-31.2c-1.2-1.6-2.4-1.6-4-1.4c-8.4,0.8-16-1.7-23.4-5.8c1.4-8.3,4.3-15.7,10-21.7
		c1.4-1.4,1.5-2.6,1-4.4c-3-9.8-4-19.9-4-30.1c0-0.9,0.1-1.8,0.2-2.9c4.9,0,9.6,0,15,0c-3.1-4.7-4.3-9.2-2.1-14.1
		c2.1-4.7,6-7.4,10-9.4c-0.5-3.7-0.9-7.2-1.5-10.7c-0.1-0.7-1.1-1.3-1.8-1.7c-2.7-1.3-5.6-2.3-8.2-3.9c-7.7-4.8-8.4-12.7-1.6-18.8
		c2-1.8,4.4-3.1,6.8-4.7c-1.8-6-3.5-12.4,1.8-17.7c5.2-5.3,11.4-3.9,18-1.7c2.2-5.3,5.6-9.6,11.3-11.6c1.7,0,3.3,0,5,0
		c5.7,2,9.1,6.2,11.3,11.6c6.7-2.3,13-3.4,18.5,2c0.1,0.1,0.4,0.2,0.6,0.2c3.3,0.5,6.7,1,10.1,1.5c2.8-5.8,6.3-11.2,13.9-11.1
		c7.5,0.1,10.8,5.7,13.5,11c3.7-0.5,6.9-0.9,10.2-1.4c0.8-0.1,1.6-0.4,2.2-0.9c4.1-3.5,8.7-3.5,13.6-2.5c1.4,0.3,2.8,0.7,4.3,1.1
		c2.1-5.5,5.6-9.4,10.9-11.5c1.9,0,3.8,0,5.6,0c5.2,2.3,8.8,6.2,10.9,11.5c6.4-2,12.8-3.6,18,1.7c5.2,5.2,3.9,11.5,1.7,17.9
		c5.7,3,11.4,6.3,11.5,13.8c0.1,7.6-5.3,11.1-11.4,14.1c3,8.7,3.4,16.8-6.5,21.1c1.7,4.4,3.2,8.6,5,12.8c0.2,0.6,1.4,1.1,2.2,1.1
		c2.5,0.1,5,0.1,7.7,0.1c0.4,9.4,0,18.5-2.5,27.3c-2.4,8.3-5.8,16.3-8.6,24.5c-0.4,1.3-0.5,3,0.1,4.2c2.5,5.6,3.6,11.5,3.9,17.7
		c0.1,1.7-0.5,2.4-2.1,2.8c-6,1.6-12,2.6-18.3,1.7c-1.3-0.2-3.1,0.4-4.1,1.3c-7.9,7.3-16.5,13.5-26.1,18.2c-1.5,0.7-2.2,1.5-2.1,3.3
		c0.2,2.9,0,5.9,0,9.5c9-5.6,17.5-10.9,26.4-16.4c1.6,2.6,3.2,5.1,5,8c-8.9,5.6-17.6,11-26.8,16.7c9.1,5.7,17.8,11.1,26.8,16.8
		c-1.7,2.7-3.2,5.1-4.9,8c-7.7-4.7-15.2-9.4-23.4-14.5c2.5,9,4.8,17.3,7.2,25.8c-3,0.9-5.8,1.6-8.9,2.5c-0.5-1.5-0.9-2.7-1.2-4
		c-2.6-9.1-5.1-18.1-7.6-27.2c-0.6-2.1-1.4-2.9-3.6-2.8c-2.4,0.2-4.8,0-7.6,0c2.4,8.6,4.7,16.8,7.1,25.3c-2.9,0.9-5.8,1.7-8.9,2.7
		c-1.5-5.2-2.9-10.1-4.3-15.1c-0.9-3.3-2-6.6-2.7-10c-0.5-2.2-1.5-3.2-3.8-2.9c-1.5,0.2-3.1,0-5,0c0,15.2,0,30.1,0,45.3
		c-3.3,0-6.2,0-9.5,0c0-15,0-29.9,0-45c-4,0-7.7,0-11.7,0c-0.1,1.2-0.2,2.3-0.2,3.4c0,28.8,0,57.6-0.1,86.4c0,3,0.9,3.8,3.8,4
		c16.1,1.2,31.9,0.5,47.4-4.5c6.6-2.1,12.7-5.4,18.1-9.8c1.6-1.3,2.2-2.6,1.5-4.8c-2.8-9.4-5.4-18.9-8-28.4c-0.3-1-0.5-2-0.8-3.2
		c3-0.8,5.8-1.6,8.9-2.5c1.4,5.1,2.8,10,4.2,14.8c2,7.2,4,14.5,6.2,21.7c0.7,2.1,0.1,3.4-1.3,5c-9.3,9.9-21,15.4-33.9,18.3
		c-6.6,1.5-13.4,2.2-20,3.3C183,335.3,176.6,335.3,170.1,335.3z M194.7,166.1c2.9,1.5,5.6,2.8,8.4,4.3
		c-5.2,10.5-10.3,20.6-15.5,31.1c5,0,9.4-0.3,13.8,0.1c6.1,0.5,11.5-1.2,16.8-3.8c8.7-4.4,16.8-9.6,23.9-16.5
		c-8.3-7.8-10.4-17.7-10.6-29.2c5.3-0.7,10.4-2.1,15.5-1.9c5.1,0.2,10.2,1.9,15.7,2.9c5.2-10.8,8.5-22.8,9-35.8
		c-13.7,0-26.9,0.1-40.2-0.1c-4.6-0.1-7.1,1.1-8.9,5.8c-3.3,8.7-9.3,15.1-19.1,16.7c-5.5,0.9-10.9,0-16-1.9
		c-1.9-0.7-3.1-0.4-4.3,1.1c-2.5,3.1-5.4,5.9-7.4,9.3c-3.5,5.8-6.5,11.9-9.8,18.2c-2.3-0.7-5.2-1.6-8.4-2.7c1.5-3.6,2.7-7,4.2-10.1
		c0.9-1.9,0.7-3.2-0.4-4.8c-7.5-11.1-17.4-19.3-29.4-25.1c-15.1-7.3-31.2-6.6-47.3-6.3c-0.2,0-0.3,0.3-1,0.8
		c1.1,6.6,2.3,13.6,3.5,20.5c1.2,0,1.9,0.1,2.5,0c8-1.2,15.3,0.9,22.4,4.2c2.3,1.1,2.7,2.3,2.1,4.6c-2.1,8.1-5.4,15.4-11.8,20.9
		c0.2,0.4,0.3,0.7,0.5,0.9c11.2,14.7,25.4,25.4,42.7,31.6c2.5,0.9,5.4,0.5,8.1,0.7c0.4-9.6,0.8-18.6,1.2-28c3.8,0.7,6.6,1.2,9.1,1.7
		c0,8.8,0,17.3,0,26.2c3.3,0,6.7-0.2,10.1,0.1c2.3,0.1,3.5-0.7,4.5-2.8C183.7,187.9,189.2,177.2,194.7,166.1z M163.2,55.3
		c-1.8,0.4-3,0.5-4.2,0.9c-3.5,1.1-7,1.9-10.3,3.4c-1.3,0.6-2.1,2.5-3.1,3.8c0.2,0.2,0.5,0.5,0.7,0.7c6.1-1.9,12.3-2.9,17.2,2.3
		c5,5.3,3.5,11.6,1.5,17.6c0.3,0.3,0.4,0.5,0.6,0.5c5.4,2.5,9.9,5.9,10.9,12.3c0.1,0.6,1.2,1.3,2,1.5c4,0.9,6.3-0.4,8-5.4
		c1.2-3.6,1.9-7.4,2.9-11.5c1.6,1.1,2.9,2.2,4.5,3c3,1.6,6,3.3,9.3,4.3s5.2-1.1,4.3-4.4c-0.8-2.8-2.1-5.4-3.5-8
		c-1-2-2.5-3.8-3.9-5.9c2.2-0.4,3.9-0.6,5.6-1.1c2.9-0.8,5.9-1.5,8.5-2.9c4.2-2.2,4.1-5-0.1-7.4c-1.8-1-3.8-1.7-5.8-2.2
		c-2.6-0.7-5.2-1.1-8.3-1.7c1.1-1.6,2.1-2.8,2.8-4.1c1.7-3.2,3.5-6.4,4.6-9.8c1-3.1-1-5.1-4.1-4.3c-2.9,0.7-5.6,2.2-8.3,3.5
		c-2,1-3.8,2.5-5.9,3.9c-0.4-2.2-0.6-3.9-1-5.6c-0.8-2.9-1.5-5.9-2.9-8.5c-2.2-4.2-5-4.1-7.4,0.1c-1,1.8-1.7,3.8-2.2,5.8
		c-0.7,2.6-1.1,5.2-1.7,8.3c-2.1-1.5-3.8-2.9-5.7-3.9c-2.8-1.4-5.6-2.9-8.6-3.6c-2.9-0.7-4.5,0.9-3.9,3.9c0.5,2.5,1.5,5,2.7,7.2
		C159.7,50.6,161.4,52.7,163.2,55.3z M217.4,85.2c2.6-1.1,5.1-2,7.4-3.3c2.3-1.3,4.4-2.9,6.9-4.6c0.4,2.4,0.6,4.3,1.1,6
		c0.9,3,1.7,6.1,3.3,8.7c1.9,3.4,4.4,3.3,6.4-0.1c1.3-2.1,2.1-4.5,2.8-6.9s1.1-5,1.6-7.9c1.8,1.2,3.1,2.3,4.5,3.1
		c3.2,1.6,6.5,3.4,9.9,4.3c2.9,0.8,4.4-1.1,3.8-4c-0.6-2.5-1.7-4.9-2.9-7.2c-1.2-2.4-2.9-4.5-4.6-6.9c1.6-0.3,2.8-0.4,4-0.8
		c3.8-1.3,7.8-2.3,11.3-4.2c2.7-1.4,2.6-3.9,0-5.5c-2.4-1.5-5.2-2.5-8-3.4c-2.3-0.7-4.7-1-7.4-1.5c1-1.5,1.9-2.6,2.5-3.8
		c1.7-3.2,3.7-6.3,4.8-9.8c1.2-3.5-0.7-5.5-4.2-4.6c-2.9,0.7-5.6,2.2-8.2,3.6c-1.9,1-3.6,2.3-5.7,3.7c-0.4-2.2-0.5-4-1.1-5.6
		c-1-3.2-1.9-6.4-3.5-9.3c-1.8-3.2-4.3-3.1-6.3,0.1c-1.2,2-2.1,4.3-2.7,6.6c-0.8,2.6-1.1,5.2-1.7,8.1c-5.4-2.9-9.6-7.9-16.6-7.2
		c2.9,5.6,1.8,10.8,0,15.8c15,6.7,15.8,21,0.2,28.1C215.9,79.5,216.6,82,217.4,85.2z M113,90.4c-1.4,0.2-2.5,0.3-3.4,0.6
		c-3.6,1.2-7.4,2.1-10.8,3.7c-2,0.9-3.4,2.9-2.7,5.4c0.9,2.9,7,7.5,10,7.7c15.1,0.7,28.8,5.4,41.4,13.7c1.6,1.1,3.5,1.8,5.4,2.2
		c3.5,0.8,5.4-1.1,4.4-4.6c-0.9-3-2.6-5.9-4.1-8.7c-0.9-1.7-2.1-3.2-3.3-5c2.2-0.4,3.8-0.6,5.4-1c2.6-0.7,5.3-1.2,7.7-2.5
		c1.6-0.8,3.8-2.8,3.7-4c-0.2-1.6-2.1-3.4-3.8-4.3c-2.1-1.2-4.7-1.6-7.1-2.2c-1.9-0.5-3.8-0.8-6-1.2c1.2-1.7,2.3-3.1,3.1-4.5
		c1.5-2.7,3.2-5.4,4.1-8.4c1.4-4.3-0.7-6.4-5-5.1c-2.9,0.9-5.6,2.7-8.3,4.2c-1.5,0.8-2.9,1.9-4.6,3c-0.4-2.1-0.5-3.8-1.1-5.3
		c-1.2-3.4-2.2-7-3.9-10.1c-1.4-2.5-3.7-2.4-5.3,0c-1.5,2.2-2.5,4.8-3.3,7.3s-1.1,5.2-1.7,8c-3.4-2.1-6.3-4.2-9.4-5.8
		c-2.5-1.3-5.6-2.9-7.9-0.7c-2.5,2.4-0.6,5.6,0.6,8.1C108.8,84.2,110.9,87,113,90.4z M153.9,304.2c0-24.4,0-48.5,0-72.9
		c-3.1,0-6,0.2-8.9,0c-2.4-0.2-3.4,0.7-4,3.1c-5.5,19.9-11.1,39.9-16.7,59.8c-0.3,1-0.5,1.9-0.8,3.1
		C133.8,299.7,143.7,301.9,153.9,304.2z M106.6,51.2c-2.9,0.5-5.3,0.7-7.5,1.5c-2.9,1-5.7,2.4-8.4,3.9c-0.6,0.3-1.1,1.9-0.8,2.6
		c0.9,1.9,10.4,5.7,12.5,4.8c5.2-2.3,10.2-1.4,15.2,0.4C125,52.3,128.5,50.8,139,55c3.1-2.1,6.1-4.2,9-6.2c-0.5-2.6-1.4-5.2-1.5-7.9
		c-0.1-2.6,0.7-5.3,1.1-8c-5.9,0.1-9.9,4.6-14.9,7.4c-0.5-2.5-0.7-4.8-1.4-7c-0.9-2.8-1.9-5.8-3.5-8.3c-1.6-2.6-3.9-2.6-5.5,0
		c-1.6,2.5-2.5,5.4-3.5,8.3c-0.7,2.2-0.9,4.5-1.4,7.1c-2.2-1.5-3.9-3-5.9-4c-2.7-1.4-5.4-2.7-8.3-3.4c-3-0.7-4.5,0.7-3.9,3.8
		c0.5,2.6,1.6,5.2,2.8,7.5C103.2,46.7,104.9,48.7,106.6,51.2z M143.2,221.7c23.1,0,45.9,0,68.6,0c0-3.6,0-6.9,0-10.1
		c-23,0-45.8,0-68.6,0C143.2,215.1,143.2,218.3,143.2,221.7z M221.2,94c-3.8,0.2-6.9,0-10,2.4c-2,1.6-5.5,1.8-8.3,1.9
		c-2.4,0.1-4.9-1-7.6-1.6c-2.2,5.3-5.6,9.6-11.4,11.4c0.3,3.1,0.6,5.9,0.9,9.4c4-5.8,8.4-9.9,14.6-11.4c6.2-1.5,12.2-0.5,18.4,1.4
		C219,102.9,220.1,98.6,221.2,94z M168.3,141.9c2.5-3,4.9-5.8,7.3-8.6c0.4-0.5,0.9-1.3,0.8-1.9c-0.6-7.7-1.2-15.4-1.9-23.2
		c0-0.4-1.6-1.1-2-0.9c-2.5,1.5-4.8,3.2-6.7,4.5c0.4,3.9,1.1,7.7,1,11.3c-0.2,4.1-2.9,7-6.3,9.1
		C163.1,135.6,165.6,138.7,168.3,141.9z M241.6,160.2c1.9,13.3,11,19.7,22.3,16C262.4,163.9,255.3,157.3,241.6,160.2z M190.1,128.5
		c11.4,4.8,21.2,1.5,24.7-11.9C202.9,111.9,194.5,115.9,190.1,128.5z M103.5,149.7c-12-4.9-21.5-0.4-24.9,11.8
		C91.9,166.8,99.5,161.7,103.5,149.7z M227.5,107.8c11.7,0,22.8,0,34.3,0c-1.5-5.9-4.8-10.2-9.1-14.2c-2.5,4.7-5.2,8.4-10.1,9.9
		c-5,1.6-9-0.6-13-3.9C228.8,102.5,228.2,105,227.5,107.8z"/>
	<path class="st0" d="M324.8,80c-1.8,6.2-4.7,11.6-8.7,16.3c-6.5,7.6-14.8,10.5-24.4,7.8c-5.2-1.5-10-4.4-15-6.8
		c-0.7-0.3-1.4-1.9-1.2-2.6c2.7-8.1,6.9-15.2,14.1-20.1c5.5-3.7,11.6-4.3,18-2.9C313.8,73.1,319.5,75.8,324.8,80z M286.8,92.3
		c11.7,6.3,21.6,3,26.2-8.6C301.9,77.2,292,80.4,286.8,92.3z"/>
	<path class="st0" d="M291.9,66.5c-3-8.1-4-16.2-1.8-24.4c1.8-6.8,6.3-11.4,12.5-14.5c5.4-2.6,11.2-4,17.2-4c0.9,0,2.4,0.9,2.7,1.7
		c2.4,6.9,3.3,14,1.7,21.3c-1.3,5.6-4.2,10.2-9,13.5C308.2,64.8,300.4,66.5,291.9,66.5z M314.8,33.8c-12.3,0.9-18.9,10.3-15.7,22.4
		C312.3,54.7,317.5,46.3,314.8,33.8z"/>
	<path class="st0" d="M313.8,135.8c0,3.3,0,6.2,0,9.2c-3.1,0-5.9,0-9.2,0c0-2.6-0.1-5.1,0.1-7.6c0-0.6,1-1.6,1.6-1.6
		C308.7,135.7,311.1,135.8,313.8,135.8z"/>
	<path class="st0" d="M69.4,91.4c-16.1-0.1-26.1-9.1-27.8-25.6c-0.3-2.5-0.2-5-0.4-7.5c-0.1-1.5,0.4-2.4,2.1-2.8
		c6-1.4,12-1.9,18-0.7c11.5,2.3,18.4,10.3,20.2,23.3c0.4,2.9,0.4,5.8,0.6,8.8c0.1,1.7-0.4,2.7-2.3,3C76.3,90.3,72.8,90.9,69.4,91.4z
		 M51.2,64c0.5,14.3,9.3,19.1,21,17.3C72.6,69.4,63,61.4,51.2,64z"/>
	<path class="st0" d="M51.9,91.5c5.8,0.2,12.8,3.2,19.3,7.8c0.6,0.4,1.1,1.8,0.9,2.5c-2.5,7.5-6.3,14.2-12.6,19.1
		c-6.1,4.7-13,5.9-20.2,3.7c-5.1-1.6-9.9-4.3-14.7-6.7c-0.7-0.3-1.4-1.9-1.2-2.6c2.5-7.8,6.5-14.7,13.2-19.7
		C40.4,92.7,44.6,91.5,51.9,91.5z M60.8,104.2c-11-6.6-21.4-3.1-26.1,8.5C44.6,119.6,54.8,116.4,60.8,104.2z"/>
	<path class="st0" d="M60.1,37.4c-3.1,0-6,0-9.1,0c0-3.1,0-6,0-9.1c3,0,6,0,9.1,0C60.1,31.3,60.1,34.2,60.1,37.4z"/>
	<path class="st0" d="M36.5,150.6c0-3,0-5.8,0-8.9c3,0,5.9,0,9.1,0c0,2.9,0,5.8,0,8.9C42.7,150.6,39.8,150.6,36.5,150.6z"/>
	<path class="st0" d="M186.2,67.6c-3.1,0-6,0-9,0c0-3,0-6,0-9.1c3,0,5.9,0,9,0C186.2,61.5,186.2,64.3,186.2,67.6z"/>
	<path class="st0" d="M234.8,54.3c3.1,0,5.9,0,9,0c0,3.1,0,5.9,0,9c-3,0-5.8,0-9,0C234.8,60.4,234.8,57.5,234.8,54.3z"/>
	<path class="st0" d="M136,93.6c0,3,0,5.9,0,9c-3,0-5.8,0-9,0c0-2.9,0-5.8,0-9C130,93.6,132.9,93.6,136,93.6z"/>
</g>
</svg>
