<?xml version="1.0" encoding="utf-8"?>
<!-- Generator: Adobe Illustrator 26.0.1, SVG Export Plug-In . SVG Version: 6.00 Build 0)  -->
<svg version="1.1" id="Layer_1" xmlns="http://www.w3.org/2000/svg" xmlns:xlink="http://www.w3.org/1999/xlink" x="0px" y="0px"
	 viewBox="0 0 350 350" style="enable-background:new 0 0 350 350;" xml:space="preserve">
<style type="text/css">
	.st0{fill:#8224E3;}
</style>
<g>
	<path class="st0" d="M288.8,331.6c-2.8,0-5.7,0-8.5,0c-7.7-1.6-14.9-4.4-21.9-7.9c-22.2-11.3-42.6-25.4-63-39.4
		c-6.8-4.6-13.5-9.2-20.3-13.8c-15,10.2-29.5,20.5-44.4,30.1c-19.3,12.4-38,25.9-61,31.1c-2.8,0-5.7,0-8.5,0
		c-0.2-0.1-0.3-0.3-0.5-0.4c-12.6-2.5-19.8-10.7-23.3-22.4c-5.3-17.8-4.2-35.6,1.8-53.1c2.4-7.1,7-11.2,14.1-13.5
		c11.3-3.5,22.5-7.7,33.7-11.5c0.9-0.3,1.9-0.8,2.7-1.1c-9.2-4-18.3-7.5-27-11.8C49,211,37.3,202,29,189.2c-6-9.3-9-19.4-7.5-30.5
		c0.5-3.6,2.4-7,2.6-10.6c0.5-8.5,4.7-14.5,11.6-19c0.8-0.5,1.6-1.4,1.8-2.2c1-5.4,3.2-9.7,8.4-10.4c0-6.5-0.2-12.5,0.1-18.5
		s0.7-12,1.8-17.9c5-26.5,19.9-45.5,44.5-56.6c5.7-2.6,12.2-3.5,18.4-5.2c3.9,0,7.7,0,11.6,0c0.5,0.2,0.9,0.4,1.4,0.5
		c23.4,3.4,40,16.2,50.8,37c0.4,0.7,0.8,1.5,1.3,2.5c0.6-1.2,1-2,1.4-2.8c9.1-18.7,23.9-30.4,43.9-35.6c2.4-0.6,4.9-1.1,7.4-1.6
		c4.1,0,8.1,0,12.2,0c0.4,0.2,0.7,0.4,1.1,0.5c25,3.8,42.8,17.8,54.4,39.8c7.7,14.6,9.5,30.6,8.8,46.9c-0.1,3.6-0.4,7.3-0.6,11
		c4.7,1.2,7.1,4.4,7.9,8.9c0.3,2,1.4,3.3,3.2,4.4c4.7,2.9,8.3,7,9.7,12.5c1.5,5.7,2.7,11.4,3.7,17.2c0.5,2.7,0.3,5.5,0.1,8.2
		c-1.2,13.1-7.8,23.6-16.8,32.7c-11.9,12-26.7,19.3-42.3,25.3c-3,1.1-6.1,2.2-9.7,3.6c1.6,0.7,2.5,1.1,3.5,1.4
		c11.7,4,23.4,8.2,35.1,12.1c5.8,1.9,9.7,5.6,11.9,11.3c6.3,16.9,7.5,34.1,3.4,51.6c-2.1,9-6.4,16.8-14.5,21.7
		C296,329.3,292.2,330.2,288.8,331.6z M91.7,152.8c-0.1-2-0.2-3.3-0.2-4.6c0.1-5.7-0.1-11.4,0.3-17.1c0.8-10.3,6.2-15.9,17.3-18.5
		c7.1-1.7,12.3,1.5,13.8,8.6c2.2,10.5,6.6,20.1,12.6,28.9c6.5,9.6,14.7,17.7,23.7,24.9c2.8,2.3,3.2,5.2,1.2,7.4
		c-1.8,2.1-4.7,2.3-7.3,0.1c-2.2-1.8-4.4-3.6-6.5-5.5c-16.3-14.7-28.6-32-33.2-53.9c-0.1-0.5-0.5-0.8-0.7-1.2
		c-8.7,1.5-11.2,3.9-11.2,12.4c-0.1,8.2,0.7,16.4,1.2,24.6c0.1,2.4,0.6,4.7-1.6,6.4s-4.3,0.9-6.6-0.2c-17.5-8.5-32-20.8-44.3-35.7
		c-0.7-0.8-1.4-1.6-2.4-2.9c-1.5,7.2-1.6,13.7,2.2,19.2c3.9,5.7,8.5,10.8,13.1,16c2.1,2.3,4.9,3.9,7.3,6c2.1,1.8,2.3,4.6,0.6,6.6
		c-1.7,2.1-3.9,2.4-6.3,1.2c-0.7-0.4-1.4-0.9-2-1.4c-11.4-8.9-21.2-19-25.3-33.7c-2.6,2.4-3.7,5.3-3.1,8.3c0.6,3,1.7,6.1,3,8.9
		c5.8,11.7,14.6,20.7,25.7,27.5c3.3,2,4.1,4.8,2.5,7.4c-1.5,2.4-4.4,2.8-7.5,1c-10.2-6.1-18.7-14-25.2-24c-0.3-0.5-0.8-0.9-1.5-1.8
		c1,6.3,3.1,11.4,6.2,16.1c6,9.2,14.3,16.1,23.6,21.7c13.1,7.9,27.5,12.5,41.8,17.4c0.9,0.3,2.1,0.2,2.9-0.2
		c28.4-12.5,56.1-26.6,81.2-44.9c20.1-14.6,35.4-32.9,40.6-58.2c1-4.8,5.7-8.3,10.4-7.6c10.7,1.5,19.9,6.3,20.3,19.8
		c0.2,6.8,0,13.6,0,20.7c0.8-0.4,1.2-0.6,1.6-0.8c12.7-7.6,23.5-17.5,32.8-28.9c0.6-0.7,0.9-1.8,1-2.8c1.7-10.3,2.3-20.7,1.1-31.1
		c-1.7-15.1-6.8-28.9-17.3-40.2c-11.1-11.9-24.3-19.9-40.9-20.5c-22.3-0.9-42.2,12.1-51.6,33.3c-1.9,4.2-4.6,7-9.4,7
		c-4.8,0-7.5-2.8-9.5-6.8c-2-3.9-4-7.9-6.7-11.2c-12.7-15.9-29-24.4-49.5-21.7c-21.8,2.9-36.8,15.8-46.7,34.8
		c-7.3,14.1-8.5,29.4-7.5,45c0.5,8.1,0.5,16.4,8.1,22c1.9,1.4,3.4,3.5,5.2,5.2C75.8,142.1,83,147.8,91.7,152.8z M318.8,167.7
		c-1.8,2.5-3.1,4.4-4.4,6.1c-6.2,8.2-13.9,14.8-22.7,20.1c-2,1.2-4.3,1.6-5.9-0.2c-1.1-1.2-1.9-3.3-1.6-4.8c0.2-1.4,1.8-2.9,3.2-3.7
		c6.7-4.2,12.8-9.1,17.7-15.3c4.7-6,9.1-12.3,10.8-20c0.8-3.6-0.4-6.6-3.1-9.5c-0.3,0.8-0.5,1.2-0.6,1.6
		c-4.3,14.8-14.7,24.8-26.6,33.6c-2.2,1.6-5,0.9-6.5-1.2c-1.5-2-1.1-4.9,0.8-6.6c1-0.9,2.1-1.6,3.1-2.4c7.7-6.1,14.6-13,18.6-22.3
		c2.2-5.2,2.1-10.6,0.6-16.5c-1.1,1.4-1.9,2.3-2.7,3.2c-12.3,15-26.8,27.3-44.4,35.6c-1.7,0.8-4.2,0.8-5.9,0.1
		c-2.4-1-2.3-3.6-1.9-5.9c1.7-9,2.1-18,1.2-27.1c-0.7-6.8-4.3-10.2-11.3-10.3c-1.2,4.1-2.3,8.2-3.7,12.2
		c-7.4,19.9-20.4,35.6-36.9,48.4c-22.1,17.2-46.9,30-72,42.2c-22.5,10.9-46,19.6-69.9,26.9c-2.6,0.8-4.6,2.1-5.6,4.7
		c-6.3,16.3-7.5,32.9-2.4,49.7c3.9,12.7,13.2,17.6,26.1,14.2c2.8-0.7,5.7-1.6,8.3-2.9c10.4-5.5,21.1-10.7,31-17
		c20.7-13.3,40.9-27.3,61.4-41c22.2-14.8,45.5-27.1,70.8-35.7c13.1-4.4,26-9.3,38.5-15c12.7-5.8,23.5-14.5,30.9-26.8
		C316.3,178,318.1,173.5,318.8,167.7z M184,263.8c0,0.4,0,0.7,0.1,1.1c0.4,0.2,0.7,0.3,1.1,0.6c21,13.8,41.8,27.9,62.9,41.4
		c9,5.7,18.4,11,28.8,13.7c13.4,3.6,22.8-1.7,26.6-15.1c4.7-16.4,3.6-32.7-2.7-48.5c-0.8-2-3.2-4-5.4-4.8
		c-15.9-5.9-31.9-11.6-47.8-17.2c-1.3-0.5-3-0.5-4.3,0c-7.7,2.9-15.5,5.6-22.8,9.2C208.1,250.4,196.1,257.2,184,263.8z"/>
	<path class="st0" d="M241.9,42.2c3.9,1.3,8,2.4,11.7,4.1c14.2,6.5,23.9,17.2,28.5,32.3c1,3.4-0.2,6-3.1,6.9
		c-2.7,0.8-5.1-0.7-6.2-3.9c-5.1-15.8-15.9-25.3-31.8-29.2c-3.2-0.8-4.8-2.8-4.4-5.6C237,44.2,239.1,42.5,241.9,42.2z"/>
	<path class="st0" d="M283.8,101.3c-0.4,1.7-0.8,4.2-1.6,6.5c-0.9,2.6-3.3,3.8-5.8,3c-2.6-0.8-3.8-2.7-3.5-5.3
		c0.3-2.2,0.8-4.4,1.4-6.5c0.7-2.4,3.2-3.8,5.5-3.3C282.2,96,283.9,98.1,283.8,101.3z"/>
</g>
</svg>
