<?xml version="1.0" encoding="utf-8"?>
<!-- Generator: Adobe Illustrator 25.2.3, SVG Export Plug-In . SVG Version: 6.00 Build 0)  -->
<svg version="1.1" id="Layer_1" xmlns="http://www.w3.org/2000/svg" xmlns:xlink="http://www.w3.org/1999/xlink" x="0px" y="0px"
	 viewBox="0 0 350 350" style="enable-background:new 0 0 350 350;" xml:space="preserve">
<style type="text/css">
	.st0{fill:#8224E3;}
</style>
<g>
	<path class="st0" d="M311.4,89.3c-8.9,3.9-17.7,7.8-26.6,11.7c-35.1,15.5-70.2,30.9-105.3,46.5c-2.9,1.3-5.2,1.3-7.9-0.5
		c-15.8-10-31.8-19.7-47.6-29.6c-1.4-0.9-2.3-2.6-3.4-4c1.5-0.8,3-2.1,4.6-2.4c50.2-9.3,100.5-18.4,150.7-27.6
		c19.9-3.6,39.7-7.3,59.6-10.8c1.5-0.3,3.2,0.4,4.8,0.7c-0.3,1.5-0.2,3.2-0.9,4.5c-22.6,41.4-45.3,82.7-68,124.1
		c-2.1,3.8-3,4-6.7,1.5c-17.6-12.2-35.3-24.4-52.9-36.7c-3.7-2.6-3.8-3.9,0-6.6c32-22.4,64-44.8,95.9-67.2c1.3-0.9,2.6-1.9,3.9-2.8
		C311.6,89.8,311.5,89.5,311.4,89.3z"/>
	<path class="st0" d="M56.7,191c1.1-1.1,2-2.1,3.1-2.9c3.1-2.5,6.1-5.3,9.4-7.3c9.6-5.8,16.8-2.7,19.9,8.1
		c2.6,9.4,1.8,18.5-2.7,26.9c-3.8,7.1-8.5,13.7-13.1,21c5.6,0.2,11.5,0.8,17.4,0.7c25.6-0.5,49.6-7.5,72.8-17.8
		c0.2-0.1,0.4-0.2,0.7-0.3c1.9-0.8,4.2-2.5,5.5,0.4c1.3,2.8-1.5,3.6-3.3,4.4c-27.3,12.1-55.6,19.9-85.8,18.4c-0.9,0-1.8,0.1-2.6-0.2
		c-7.4-2.5-12.6,0.6-18.1,5.5c-13.3,11.9-28.4,21.1-44.5,28.7c-0.9,0.4-1.9,1.1-2.7,1.1c-0.9-0.1-2.3-0.7-2.6-1.4
		c-0.3-0.8,0.1-2.3,0.7-2.9c1.1-1,2.6-1.5,3.9-2.2c16.9-8.2,32.5-18.5,47-31.3c-1.8-0.6-3.2-1.2-4.6-1.6
		c-14.1-4.3-25.9-12-35.8-22.9c-7.9-8.7-7.4-23.5,1-31.7c4.9-4.7,10.9-5.9,17-3.5c5.1,2,9.7,5.4,14.5,8.3
		C54.5,189,55.5,190,56.7,191z"/>
	<path class="st0" d="M182.2,201.2c-2.7-16-5.2-30.8-7.7-46c30.3-13.3,60.4-26.6,90.5-39.8c0.1,0.2,0.3,0.4,0.4,0.7
		c-1,0.8-2.1,1.5-3.1,2.3c-17.7,12.4-35.3,24.7-52.9,37.2c-2.3,1.7-4.4,4.1-5.8,6.6c-6.4,11.5-12.6,23.2-18.9,34.8
		C184,198.2,183.3,199.3,182.2,201.2z"/>
	<path class="st0" d="M205.9,168.6c8.7,6.1,17,12,25.6,18.1c-1.1,0.8-1.9,1.3-2.7,1.8c-13.1,7.7-26.2,15.4-39.3,23
		c-1.3,0.7-3.1,0.5-4.7,0.8c0.1-1.7-0.3-3.7,0.5-5C191.9,194.4,198.8,181.7,205.9,168.6z"/>
</g>
</svg>
