<?xml version="1.0" encoding="utf-8"?>
<!-- Generator: Adobe Illustrator 25.2.3, SVG Export Plug-In . SVG Version: 6.00 Build 0)  -->
<svg version="1.1" id="Layer_1" xmlns="http://www.w3.org/2000/svg" xmlns:xlink="http://www.w3.org/1999/xlink" x="0px" y="0px"
	 viewBox="0 0 350 350" style="enable-background:new 0 0 350 350;" xml:space="preserve">
<style type="text/css">
	.st0{fill:#8224E3;}
</style>
<g>
	<path class="st0" d="M56.3,229.4C46,203.1,44.8,177,52.5,150c1.9,3.9,3.4,7.6,5.3,11.2c2,3.8,4.8,4.9,7.6,3.5
		c3.1-1.6,3.7-4.5,1.7-8.4c-3.6-7-6-14.5-7-22.4c-0.1-1.1-0.1-2.5,0.4-3.5c8.4-16.6,20-30.7,34.6-42.2c0.3-0.2,0.7-0.4,1.2-0.7
		c-1.5,5.2-3.4,10.2-4.4,15.3c-1.2,6.3-1.7,12.7-2.3,19.1c-0.3,3.7,1.8,5.9,5,6c3.3,0.1,5.3-2.1,5.5-5.9
		c0.5-15.5,4.7-29.9,12.7-43.2c1.5-2.5,3.4-4.3,6.1-5.7c12.9-6.3,26.4-10.7,40.6-12.9c0.4-0.1,0.7,0,1.3-0.1
		c-2.2,3.9-4.5,7.5-6.5,11.3c-1.9,3.5-1.1,6.6,1.9,8.1c2.9,1.5,5.4,0.2,7.5-3.1c3.5-5.5,7.2-10.9,10.9-16.2c0.6-0.9,2.1-1.7,3.3-1.7
		c15.7-0.1,31.4-0.1,47.4-0.1c-0.9,3.1-1.8,5.9-2.6,8.6c-1,3.7,0.2,6.6,3.2,7.5c3.2,0.9,5.7-0.8,7-4.6c1.3-3.7,1.9-8.5,4.6-10.8
		c2.3-1.9,7-0.9,10.6-1.1c30.1-1.4,57.1-10.5,79.1-32.1c0.3-0.3,0.6-0.5,1-0.8c0.1,0,0.2,0,0.9,0.2c-1.1,6.3-1.8,12.8-3.3,19.1
		c-7.3,31.1-25.3,54.8-50.6,73.4c-1.1,0.8-2.5,1.5-3.5,2.5c-3.8,3.8-8.1,3.6-12.6,1.6c-2.4-1.1-4.8-2.3-7.1-3.5
		c-2.9-1.5-5.9-0.8-7.4,1.7c-1.5,2.6-0.8,5.6,2.1,7.3c2.2,1.4,4.6,2.5,7.2,3.9c-0.8,0.6-1.5,1.2-2.2,1.6
		c-13.1,7.5-26.3,14.7-39.2,22.5c-5.9,3.6-11.1,8.2-16.7,12.3c-1.1,0.8-2.4,1.5-3.7,1.7c-8.1,1-16-0.3-23.7-3
		c-1.2-0.4-2.5-1-3.8-1.2c-2.5-0.4-4.8,1.3-5.6,3.8c-0.8,2.5,0.4,5.1,3,6.3c7,3.3,14.5,4.8,22.5,5c-0.3,0.7-0.5,1.2-0.8,1.6
		c-5,7.3-10,14.6-15.1,21.9c-0.6,0.9-1.4,1.9-2.3,2.3c-12.1,5.2-24.5,8.2-37.8,5.4c-3.3-0.7-6.4-2-9.5-3.2c-3.6-1.4-6.5-0.6-7.8,2.2
		c-1.4,3,0,5.9,3.6,7.6c12.2,5.7,24.9,6.2,37.9,3.6c0.7-0.1,1.4-0.2,2.5-0.4c-0.5,0.8-0.7,1.3-1.1,1.7
		c-20.5,21.1-45.3,29.3-74.2,24.3c-4.9-0.9-9.5-3.6-14.7-5.7c-1.4,7-3.1,14.4-4.2,22c-1.4,9.4-2.1,18.9-3.3,28.3
		c-0.3,2-1.3,4.1-2.7,5.6c-5.1,5.4-10.5,10.6-16.4,16.5c1.7,0,2.6,0,3.5,0c11.9,0,23.8,0,35.8,0c3,0,5.2,1.1,6.1,4
		c1,3.4-1.5,6.4-5.3,6.5c-4.6,0.1-9.2,0-13.8,0c-12.3,0-24.7,0-37,0c-6.1,0-7.8-1.9-7.3-8c1.8-23.2,9.1-44.4,21.9-63.8
		c4.9-7.4,9.4-15,14-22.3c2.7,3.2,5.6,6.7,8.8,10.5c1.8-5.9,3-11.1,4.9-16.1c7-18.4,15.6-35.9,27.4-51.7
		c15.4-20.7,35.9-34.2,60.1-42.3c16.5-5.5,33.3-10.2,49.8-15.5c24.1-7.7,47.2-17.8,69.4-30.1c3.6-2,4.7-4.9,3.1-7.8
		c-1.5-2.7-4.6-3.6-7.6-1.9c-30.9,17.5-64,29.2-98,38.6c-17.7,4.9-34.9,11.1-50.7,20.8c-20.1,12.3-35.1,29.4-46.3,49.9
		c-6.5,12.1-11.8,24.8-17.6,37.3c-0.9,1.8-1.7,3.7-2.5,5.6C57.2,228.4,56.9,228.6,56.3,229.4z M50.6,261.2
		c-8.7,13-14.4,27-16.8,42.4c2.8-2.2,5-4.9,7.6-7.1c4.2-3.6,6.6-7.6,6.7-13.5C48.3,275.8,49.7,268.5,50.6,261.2z"/>
	<path class="st0" d="M185.2,324.7c-27.3,0-54.6,0-81.9,0c-1.1,0-2.2,0-3.4-0.1c-2.8-0.3-4.7-2.3-4.8-5c-0.1-2.8,1.8-5.1,4.7-5.5
		c1-0.1,2-0.1,3.1-0.1c54.9,0,109.9,0,164.8,0c5.2,0,7.7,1.7,7.8,5.2c0.1,3.6-2.4,5.4-7.6,5.4C240.2,324.7,212.7,324.7,185.2,324.7z
		"/>
</g>
</svg>
